<svg width="64" height="64" viewBox="0 0 64 64" fill="none" xmlns="http://www.w3.org/2000/svg">
<path fill-rule="evenodd" clip-rule="evenodd" d="M32 64C49.6731 64 64 49.6731 64 32C64 14.3269 49.6731 0 32 0C14.3269 0 0 14.3269 0 32C0 49.6731 14.3269 64 32 64Z" fill="white"/>
<path fill-rule="evenodd" clip-rule="evenodd" d="M32 35.6924L50.4615 19.6924H13.5384L32 35.6924ZM27.0135 33.9212L32 38.0142L36.9083 33.9212L50.4615 45.5385H13.5384L27.0135 33.9212ZM12.3077 44.3078V20.9232L25.8461 32.6155L12.3077 44.3078ZM51.6923 44.3078V20.9232L38.1538 32.6155L51.6923 44.3078Z" fill="black"/>
</svg>
