<svg width="56" height="56" viewBox="0 0 56 56" fill="none" xmlns="http://www.w3.org/2000/svg">
<path fill-rule="evenodd" clip-rule="evenodd" d="M27.9929 0.891846C12.6389 0.891846 0.188416 13.3397 0.188416 28.6962C0.188416 40.9809 8.15532 51.4031 19.2028 55.0798C20.5923 55.3371 21.1026 54.4764 21.1026 53.7421C21.1026 53.0795 21.0771 50.8888 21.065 48.5654C13.3297 50.2476 11.6975 45.2849 11.6975 45.2849C10.4326 42.0713 8.61042 41.2165 8.61042 41.2165C6.08747 39.4908 8.80059 39.5263 8.80059 39.5263C11.5923 39.7224 13.0627 42.3921 13.0627 42.3921C15.5425 46.6425 19.5671 45.4135 21.154 44.7031C21.4036 42.9062 22.1238 41.6792 22.9193 40.985C16.7435 40.2821 10.2511 37.8978 10.2511 27.2439C10.2511 24.2085 11.3374 21.7281 13.1162 19.7809C12.8275 19.0803 11.8757 16.2525 13.3856 12.4224C13.3856 12.4224 15.7205 11.6756 21.0334 15.2729C23.2515 14.6567 25.6302 14.3478 27.993 14.3371C30.3558 14.3478 32.7362 14.6567 34.9582 15.2729C40.2653 11.6756 42.5969 12.4224 42.5969 12.4224C44.1103 16.2525 43.1584 19.0803 42.8698 19.7809C44.6526 21.7281 45.7313 24.2084 45.7313 27.2439C45.7313 37.9234 39.2267 40.2744 33.0351 40.9629C34.0324 41.8259 34.9208 43.5179 34.9208 46.1118C34.9208 49.8321 34.889 52.8263 34.889 53.7421C34.889 54.4822 35.3894 55.3493 36.7986 55.0764C47.8404 51.3956 55.7973 40.9769 55.7973 28.6962C55.7973 13.3397 43.3485 0.891846 27.9929 0.891846Z" fill="white"/>
<path d="M10.7195 40.8128C10.6583 40.9513 10.4407 40.9926 10.2428 40.8978C10.041 40.8071 9.92815 40.6187 9.99329 40.4801C10.0531 40.3379 10.2706 40.2984 10.4722 40.3933C10.6741 40.4842 10.7893 40.6743 10.7195 40.8128Z" fill="white"/>
<path d="M11.8458 42.0691C11.7133 42.1917 11.4537 42.1347 11.2778 41.9405C11.0957 41.7466 11.0621 41.4871 11.1966 41.3627C11.3334 41.2399 11.5848 41.2973 11.7667 41.4913C11.9489 41.6874 11.9844 41.9446 11.8458 42.0691Z" fill="white"/>
<path d="M12.9422 43.6701C12.7717 43.7888 12.4929 43.6776 12.3207 43.4304C12.1502 43.183 12.1502 42.8864 12.3247 42.7675C12.4969 42.6489 12.7717 42.7558 12.9462 43.001C13.1162 43.2525 13.1161 43.5492 12.9422 43.6701Z" fill="white"/>
<path d="M14.4439 45.2176C14.2914 45.3857 13.9667 45.3402 13.7294 45.1109C13.4861 44.8869 13.4187 44.5687 13.5711 44.4005C13.7258 44.2323 14.0523 44.2795 14.2914 44.507C14.5328 44.7309 14.6061 45.0511 14.4439 45.2176Z" fill="white"/>
<path d="M16.5158 46.1157C16.4484 46.3332 16.136 46.4322 15.8212 46.3396C15.5064 46.2442 15.301 45.9893 15.3643 45.7694C15.4295 45.55 15.7437 45.4471 16.0607 45.546C16.3751 45.6408 16.581 45.894 16.5158 46.1157Z" fill="white"/>
<path d="M18.7915 46.2822C18.799 46.5115 18.532 46.7017 18.2015 46.7058C17.8692 46.7134 17.5998 46.5278 17.5963 46.302C17.5963 46.0704 17.8574 45.8824 18.1898 45.8766C18.5203 45.8703 18.7915 46.0546 18.7915 46.2822Z" fill="white"/>
<path d="M20.9089 45.922C20.9484 46.1455 20.7185 46.3752 20.3902 46.4364C20.0674 46.4958 19.7689 46.3573 19.7276 46.1355C19.6877 45.9063 19.9213 45.6765 20.2438 45.6171C20.5726 45.56 20.867 45.6944 20.9089 45.922Z" fill="white"/>
</svg>
