<svg width="64" height="64" viewBox="0 0 64 64" fill="none" xmlns="http://www.w3.org/2000/svg">
<path d="M32 60.7999C47.9058 60.7999 60.8 47.9058 60.8 32C60.8 16.0942 47.9058 3.19995 32 3.19995C16.0942 3.19995 3.20001 16.0942 3.20001 32C3.20001 47.9058 16.0942 60.7999 32 60.7999Z" fill="white"/>
<path d="M24.9351 27.8843H20.0135V43.4753H24.9351V27.8843Z" fill="black"/>
<path d="M38.3796 27.7339C35.5598 27.7339 33.794 29.2616 33.4663 30.331V27.8843H27.9393C28.009 29.1835 27.9393 43.4753 27.9393 43.4753H33.4663V35.0388C33.4663 34.5697 33.4446 34.1012 33.5879 33.7646C33.9681 32.8276 34.7841 31.8542 36.2516 31.8542C38.1703 31.8542 39.0426 33.2961 39.0426 35.4075V43.4753H44.6241V34.8059C44.6247 29.9771 41.8766 27.7339 38.3796 27.7339Z" fill="black"/>
<path d="M22.3828 20.5242C20.5658 20.5242 19.3773 21.6909 19.3773 23.2307C19.3773 24.7418 20.5319 25.9341 22.3143 25.9341H22.3488C24.1991 25.9341 25.3504 24.7379 25.3504 23.2275C25.3152 21.6883 24.1984 20.5242 22.3828 20.5242Z" fill="black"/>
</svg>
