<svg width="64" height="64" viewBox="0 0 64 64" fill="none" xmlns="http://www.w3.org/2000/svg">
<path d="M32 64C49.6731 64 64 49.6731 64 32C64 14.3269 49.6731 0 32 0C14.3269 0 0 14.3269 0 32C0 49.6731 14.3269 64 32 64Z" fill="white"/>
<path d="M49.0667 20.5333C47.8667 21.2 46.4 21.6 45.0667 21.7333C46.5333 20.8 47.6 19.3333 48.1333 17.6C46.8 18.4 45.3333 19.0667 43.6 19.4667C42.2667 18 40.5333 17.0667 38.5333 17.0667C34.6667 17.0667 31.4667 20.4 31.4667 24.6666C31.4667 25.2 31.4667 25.8666 31.6 26.4C25.7333 26.1333 20.5333 23.0666 17.0667 18.5333C16.4 19.6 16.1333 20.9333 16.1333 22.4C16.1333 25.0666 17.3333 27.3333 19.2 28.6666C18 28.6666 16.9333 28.2666 16 27.7333V27.8666C16 31.4666 18.4 34.5333 21.6 35.3333C21.0667 35.4666 20.4 35.6 19.7333 35.6C19.3333 35.6 18.8 35.6 18.4 35.4667C19.3333 38.5333 21.8667 40.6667 24.9333 40.6667C22.5333 42.6667 19.4667 43.8667 16.2667 43.8667C15.7333 43.8667 15.2 43.8666 14.5333 43.7333C17.6 45.8666 21.3333 47.2 25.3333 47.2C38.2667 47.2 45.3333 35.7333 45.3333 25.7333C45.3333 25.4666 45.3333 25.0667 45.3333 24.8C46.9333 23.4667 48.1333 22.1333 49.0667 20.5333Z" fill="black"/>
</svg>
